<svg xmlns="http://www.w3.org/2000/svg" xmlns:xlink="http://www.w3.org/1999/xlink" contentStyleType="text/css" data-diagram-type="CLASS" height="747px" preserveAspectRatio="none" style="width:745px;height:747px;background:#FFFFFF;" version="1.1" viewBox="0 0 745 747" width="745px" zoomAndPan="magnify"><defs/><g><!--class Subscriber--><g class="entity" data-entity="Subscriber" data-source-line="8" data-uid="ent0002" id="entity_Subscriber"><rect fill="#F1F1F1" height="56.2969" rx="2.5" ry="2.5" style="stroke:#181818;stroke-width:0.5;" width="209.0732" x="226" y="567.46"/><ellipse cx="289.0171" cy="583.46" fill="#B4A7E5" rx="11" ry="11" style="stroke:#181818;stroke-width:1;"/><path d="M284.939,579.2256 L284.939,577.0694 L292.3296,577.0694 L292.3296,579.2256 L289.8608,579.2256 L289.8608,587.3037 L292.3296,587.3037 L292.3296,589.46 L284.939,589.46 L284.939,587.3037 L287.4077,587.3037 L287.4077,579.2256 L284.939,579.2256 Z " fill="#000000"/><text fill="#000000" font-family="'Segoe UI'" font-size="14" font-style="italic" lengthAdjust="spacing" textLength="74.5391" x="309.5171" y="588.3067">Subscriber</text><line style="stroke:#181818;stroke-width:0.5;" x1="227" x2="434.0732" y1="599.46" y2="599.46"/><text fill="#000000" font-family="'Segoe UI'" font-size="14" lengthAdjust="spacing" textLength="197.0732" x="232" y="616.4551">+update(data: Object): void</text></g><!--class TemperatureDisplay--><g class="entity" data-entity="TemperatureDisplay" data-source-line="13" data-uid="ent0003" id="entity_TemperatureDisplay"><rect fill="#F1F1F1" height="56.2969" rx="2.5" ry="2.5" style="stroke:#181818;stroke-width:0.5;" width="209.0732" x="7" y="683.75"/><ellipse cx="37.3448" cy="699.75" fill="#ADD1B2" rx="11" ry="11" style="stroke:#181818;stroke-width:1;"/><path d="M40.3136,705.3906 Q39.7354,705.6875 39.0948,705.8281 Q38.4542,705.9844 37.7511,705.9844 Q35.2511,705.9844 33.9229,704.3438 Q32.6104,702.6875 32.6104,699.5625 Q32.6104,696.4375 33.9229,694.7813 Q35.2511,693.125 37.7511,693.125 Q38.4542,693.125 39.0948,693.2813 Q39.7511,693.4375 40.3136,693.7344 L40.3136,696.4531 Q39.6886,695.875 39.0948,695.6094 Q38.5011,695.3281 37.8761,695.3281 Q36.5323,695.3281 35.8448,696.4063 Q35.1573,697.4688 35.1573,699.5625 Q35.1573,701.6563 35.8448,702.7344 Q36.5323,703.7969 37.8761,703.7969 Q38.5011,703.7969 39.0948,703.5313 Q39.6886,703.25 40.3136,702.6719 L40.3136,705.3906 Z " fill="#000000"/><text fill="#000000" font-family="'Segoe UI'" font-size="14" lengthAdjust="spacing" textLength="142.9736" x="54.7548" y="704.5967">TemperatureDisplay</text><line style="stroke:#181818;stroke-width:0.5;" x1="8" x2="215.0732" y1="715.75" y2="715.75"/><text fill="#000000" font-family="'Segoe UI'" font-size="14" lengthAdjust="spacing" textLength="197.0732" x="13" y="732.7451">+update(data: Object): void</text></g><!--class HumidityDisplay--><g class="entity" data-entity="HumidityDisplay" data-source-line="17" data-uid="ent0004" id="entity_HumidityDisplay"><rect fill="#F1F1F1" height="56.2969" rx="2.5" ry="2.5" style="stroke:#181818;stroke-width:0.5;" width="209.0732" x="273" y="683.75"/><ellipse cx="315.8956" cy="699.75" fill="#ADD1B2" rx="11" ry="11" style="stroke:#181818;stroke-width:1;"/><path d="M318.8644,705.3906 Q318.2862,705.6875 317.6456,705.8281 Q317.005,705.9844 316.3019,705.9844 Q313.8019,705.9844 312.4737,704.3438 Q311.1612,702.6875 311.1612,699.5625 Q311.1612,696.4375 312.4737,694.7813 Q313.8019,693.125 316.3019,693.125 Q317.005,693.125 317.6456,693.2813 Q318.3019,693.4375 318.8644,693.7344 L318.8644,696.4531 Q318.2394,695.875 317.6456,695.6094 Q317.0519,695.3281 316.4269,695.3281 Q315.0831,695.3281 314.3956,696.4063 Q313.7081,697.4688 313.7081,699.5625 Q313.7081,701.6563 314.3956,702.7344 Q315.0831,703.7969 316.4269,703.7969 Q317.0519,703.7969 317.6456,703.5313 Q318.2394,703.25 318.8644,702.6719 L318.8644,705.3906 Z " fill="#000000"/><text fill="#000000" font-family="'Segoe UI'" font-size="14" lengthAdjust="spacing" textLength="115.083" x="336.0946" y="704.5967">HumidityDisplay</text><line style="stroke:#181818;stroke-width:0.5;" x1="274" x2="481.0732" y1="715.75" y2="715.75"/><text fill="#000000" font-family="'Segoe UI'" font-size="14" lengthAdjust="spacing" textLength="197.0732" x="279" y="732.7451">+update(data: Object): void</text></g><!--class PressureDisplay--><g class="entity" data-entity="PressureDisplay" data-source-line="21" data-uid="ent0005" id="entity_PressureDisplay"><rect fill="#F1F1F1" height="56.2969" rx="2.5" ry="2.5" style="stroke:#181818;stroke-width:0.5;" width="209.0732" x="529" y="683.75"/><ellipse cx="573.1722" cy="699.75" fill="#ADD1B2" rx="11" ry="11" style="stroke:#181818;stroke-width:1;"/><path d="M576.141,705.3906 Q575.5628,705.6875 574.9222,705.8281 Q574.2816,705.9844 573.5785,705.9844 Q571.0785,705.9844 569.7503,704.3438 Q568.4378,702.6875 568.4378,699.5625 Q568.4378,696.4375 569.7503,694.7813 Q571.0785,693.125 573.5785,693.125 Q574.2816,693.125 574.9222,693.2813 Q575.5785,693.4375 576.141,693.7344 L576.141,696.4531 Q575.516,695.875 574.9222,695.6094 Q574.3285,695.3281 573.7035,695.3281 Q572.3597,695.3281 571.6722,696.4063 Q570.9847,697.4688 570.9847,699.5625 Q570.9847,701.6563 571.6722,702.7344 Q572.3597,703.7969 573.7035,703.7969 Q574.3285,703.7969 574.9222,703.5313 Q575.516,703.25 576.141,702.6719 L576.141,705.3906 Z " fill="#000000"/><text fill="#000000" font-family="'Segoe UI'" font-size="14" lengthAdjust="spacing" textLength="112.2461" x="593.6549" y="704.5967">PressureDisplay</text><line style="stroke:#181818;stroke-width:0.5;" x1="530" x2="737.0732" y1="715.75" y2="715.75"/><text fill="#000000" font-family="'Segoe UI'" font-size="14" lengthAdjust="spacing" textLength="197.0732" x="535" y="732.7451">+update(data: Object): void</text></g><!--class EventManager--><g class="entity" data-entity="EventManager" data-source-line="31" data-uid="ent0009" id="entity_EventManager"><rect fill="#F1F1F1" height="129.4844" rx="2.5" ry="2.5" style="stroke:#181818;stroke-width:0.5;" width="428.5684" x="104.25" y="377.97"/><ellipse cx="263.5479" cy="393.97" fill="#ADD1B2" rx="11" ry="11" style="stroke:#181818;stroke-width:1;"/><path d="M266.5166,399.6106 Q265.9385,399.9075 265.2979,400.0481 Q264.6572,400.2044 263.9541,400.2044 Q261.4541,400.2044 260.126,398.5637 Q258.8135,396.9075 258.8135,393.7825 Q258.8135,390.6575 260.126,389.0012 Q261.4541,387.345 263.9541,387.345 Q264.6572,387.345 265.2979,387.5012 Q265.9541,387.6575 266.5166,387.9544 L266.5166,390.6731 Q265.8916,390.095 265.2979,389.8294 Q264.7041,389.5481 264.0791,389.5481 Q262.7354,389.5481 262.0479,390.6262 Q261.3604,391.6887 261.3604,393.7825 Q261.3604,395.8762 262.0479,396.9544 Q262.7354,398.0169 264.0791,398.0169 Q264.7041,398.0169 265.2979,397.7512 Q265.8916,397.47 266.5166,396.8919 L266.5166,399.6106 Z " fill="#000000"/><text fill="#000000" font-family="'Segoe UI'" font-size="14" lengthAdjust="spacing" textLength="101.4727" x="284.0479" y="398.8167">EventManager</text><line style="stroke:#181818;stroke-width:0.5;" x1="105.25" x2="531.8184" y1="409.97" y2="409.97"/><text fill="#000000" font-family="'Segoe UI'" font-size="14" lengthAdjust="spacing" textLength="373.3174" x="110.25" y="426.9651">-listeners: HashMap&lt;String, ArrayList&lt;Subscriber&gt;&gt;</text><line style="stroke:#181818;stroke-width:0.5;" x1="105.25" x2="531.8184" y1="434.2669" y2="434.2669"/><text fill="#000000" font-family="'Segoe UI'" font-size="14" lengthAdjust="spacing" textLength="262.9375" x="110.25" y="451.262">+EventManager(operations: String...)</text><text fill="#000000" font-family="'Segoe UI'" font-size="14" lengthAdjust="spacing" textLength="398.8223" x="110.25" y="467.5589">+subscribe(eventType: String, listener: Subscriber): void</text><text fill="#000000" font-family="'Segoe UI'" font-size="14" lengthAdjust="spacing" textLength="416.5684" x="110.25" y="483.8557">+unsubscribe(eventType: String, listener: Subscriber): void</text><text fill="#000000" font-family="'Segoe UI'" font-size="14" lengthAdjust="spacing" textLength="321.8359" x="110.25" y="500.1526">+notify(eventType: String, data: Object): void</text></g><!--class WeatherStation--><g class="entity" data-entity="WeatherStation" data-source-line="40" data-uid="ent0010" id="entity_WeatherStation"><rect fill="#F1F1F1" height="194.6719" rx="2.5" ry="2.5" style="stroke:#181818;stroke-width:0.5;" width="378.3242" x="154.37" y="123.3"/><ellipse cx="284.5126" cy="139.3" fill="#ADD1B2" rx="11" ry="11" style="stroke:#181818;stroke-width:1;"/><path d="M287.4813,144.9406 Q286.9032,145.2375 286.2626,145.3781 Q285.622,145.5344 284.9188,145.5344 Q282.4188,145.5344 281.0907,143.8937 Q279.7782,142.2375 279.7782,139.1125 Q279.7782,135.9875 281.0907,134.3312 Q282.4188,132.675 284.9188,132.675 Q285.622,132.675 286.2626,132.8312 Q286.9188,132.9875 287.4813,133.2844 L287.4813,136.0031 Q286.8563,135.425 286.2626,135.1594 Q285.6688,134.8781 285.0438,134.8781 Q283.7001,134.8781 283.0126,135.9562 Q282.3251,137.0187 282.3251,139.1125 Q282.3251,141.2062 283.0126,142.2844 Q283.7001,143.3469 285.0438,143.3469 Q285.6688,143.3469 286.2626,143.0812 Q286.8563,142.8 287.4813,142.2219 L287.4813,144.9406 Z " fill="#000000"/><text fill="#000000" font-family="'Segoe UI'" font-size="14" lengthAdjust="spacing" textLength="109.5391" x="305.0126" y="144.1467">WeatherStation</text><line style="stroke:#181818;stroke-width:0.5;" x1="155.37" x2="531.6942" y1="155.3" y2="155.3"/><text fill="#000000" font-family="'Segoe UI'" font-size="14" lengthAdjust="spacing" textLength="216.9316" x="160.37" y="172.2951">-eventManager: EventManager</text><text fill="#000000" font-family="'Segoe UI'" font-size="14" lengthAdjust="spacing" textLength="133.9775" x="160.37" y="188.592">-temperature: float</text><text fill="#000000" font-family="'Segoe UI'" font-size="14" lengthAdjust="spacing" textLength="107.4951" x="160.37" y="204.8889">-humidity: float</text><text fill="#000000" font-family="'Segoe UI'" font-size="14" lengthAdjust="spacing" textLength="106.7568" x="160.37" y="221.1857">-pressure: float</text><line style="stroke:#181818;stroke-width:0.5;" x1="155.37" x2="531.6942" y1="228.4875" y2="228.4875"/><text fill="#000000" font-family="'Segoe UI'" font-size="14" lengthAdjust="spacing" textLength="366.3242" x="160.37" y="245.4826">+WeatherStation(eventManager: EventManager, ...)</text><text fill="#000000" font-family="'Segoe UI'" font-size="14" lengthAdjust="spacing" textLength="303.1396" x="160.37" y="261.7795">+setTemperature(temperature: float): void</text><text fill="#000000" font-family="'Segoe UI'" font-size="14" lengthAdjust="spacing" textLength="248.7666" x="160.37" y="278.0764">+setHumidity(humidity: float): void</text><text fill="#000000" font-family="'Segoe UI'" font-size="14" lengthAdjust="spacing" textLength="245.1914" x="160.37" y="294.3732">+setPressure(pressure: float): void</text><text fill="#000000" font-family="'Segoe UI'" font-size="14" lengthAdjust="spacing" textLength="177.6318" x="160.37" y="310.6701">+getTemperature(): float</text></g><!--class ObserverExample--><g class="entity" data-entity="ObserverExample" data-source-line="53" data-uid="ent0011" id="entity_ObserverExample"><rect fill="#F1F1F1" height="56.2969" rx="2.5" ry="2.5" style="stroke:#181818;stroke-width:0.5;" width="200.8154" x="243.13" y="7"/><ellipse cx="277.8645" cy="23" fill="#ADD1B2" rx="11" ry="11" style="stroke:#181818;stroke-width:1;"/><path d="M280.8333,28.6406 Q280.2551,28.9375 279.6145,29.0781 Q278.9739,29.2344 278.2708,29.2344 Q275.7708,29.2344 274.4426,27.5938 Q273.1301,25.9375 273.1301,22.8125 Q273.1301,19.6875 274.4426,18.0313 Q275.7708,16.375 278.2708,16.375 Q278.9739,16.375 279.6145,16.5313 Q280.2708,16.6875 280.8333,16.9844 L280.8333,19.7031 Q280.2083,19.125 279.6145,18.8594 Q279.0208,18.5781 278.3958,18.5781 Q277.052,18.5781 276.3645,19.6563 Q275.677,20.7188 275.677,22.8125 Q275.677,24.9063 276.3645,25.9844 Q277.052,27.0469 278.3958,27.0469 Q279.0208,27.0469 279.6145,26.7813 Q280.2083,26.5 280.8333,25.9219 L280.8333,28.6406 Z " fill="#000000"/><text fill="#000000" font-family="'Segoe UI'" font-size="14" lengthAdjust="spacing" textLength="124.9609" x="296.25" y="27.8467">ObserverExample</text><line style="stroke:#181818;stroke-width:0.5;" x1="244.13" x2="442.9454" y1="39" y2="39"/><text fill="#000000" font-family="'Segoe UI'" font-size="14" lengthAdjust="spacing" text-decoration="underline" textLength="188.8154" x="249.13" y="55.9951">+main(args: String[]): void</text></g><!--reverse link Subscriber to TemperatureDisplay--><g class="link" data-entity-1="Subscriber" data-entity-2="TemperatureDisplay" data-source-line="26" data-uid="lnk6" id="link_Subscriber_TemperatureDisplay"><path codeLine="26" d="M249.5,642.09 C249.5,676.56 249.5,712.05 249.5,712.05 C249.5,712.05 235.52,712.05 216.45,712.05" fill="none" id="Subscriber-backto-TemperatureDisplay" style="stroke:#181818;stroke-width:1;stroke-dasharray:7,7;"/><polygon fill="none" points="249.5,624.09,243.5,642.09,255.5,642.09,249.5,624.09" style="stroke:#181818;stroke-width:1;"/></g><!--reverse link Subscriber to HumidityDisplay--><g class="link" data-entity-1="Subscriber" data-entity-2="HumidityDisplay" data-source-line="27" data-uid="lnk7" id="link_Subscriber_HumidityDisplay"><path codeLine="27" d="M354.04,642.05 C354.04,660.08 354.04,665.3 354.04,683.34" fill="none" id="Subscriber-backto-HumidityDisplay" style="stroke:#181818;stroke-width:1;stroke-dasharray:7,7;"/><polygon fill="none" points="354.04,624.05,348.04,642.05,360.04,642.05,354.04,624.05" style="stroke:#181818;stroke-width:1;"/></g><!--reverse link Subscriber to PressureDisplay--><g class="link" data-entity-1="Subscriber" data-entity-2="PressureDisplay" data-source-line="28" data-uid="lnk8" id="link_Subscriber_PressureDisplay"><path codeLine="28" d="M453.47,596.05 C541.67,596.05 635.45,596.05 635.45,596.05 C635.45,596.05 635.45,648.96 635.45,683.26" fill="none" id="Subscriber-backto-PressureDisplay" style="stroke:#181818;stroke-width:1;stroke-dasharray:7,7;"/><polygon fill="none" points="435.47,596.05,453.47,602.05,453.47,590.05,435.47,596.05" style="stroke:#181818;stroke-width:1;"/></g><!--reverse link EventManager to Subscriber--><g class="link" data-entity-1="EventManager" data-entity-2="Subscriber" data-source-line="58" data-uid="lnk12" id="link_EventManager_Subscriber"><path codeLine="58" d="M330.54,519.55 C330.54,540.39 330.54,550.4 330.54,567.21" fill="none" id="EventManager-backto-Subscriber" style="stroke:#181818;stroke-width:1;"/><polygon fill="none" points="330.54,507.55,326.54,513.55,330.54,519.55,334.54,513.55,330.54,507.55" style="stroke:#181818;stroke-width:1;"/><text fill="#000000" font-family="'Segoe UI'" font-size="13" lengthAdjust="spacing" textLength="48.2041" x="281.54" y="533.4469">notifica</text><text fill="#000000" font-family="'Segoe UI'" font-size="13" lengthAdjust="spacing" textLength="6.5" x="323.9392" y="556.4386">*</text></g><!--reverse link WeatherStation to EventManager--><g class="link" data-entity-1="WeatherStation" data-entity-2="EventManager" data-source-line="59" data-uid="lnk13" id="link_WeatherStation_EventManager"><path codeLine="59" d="M343.54,330.37 C343.54,350.38 343.54,358.98 343.54,377.52" fill="none" id="WeatherStation-backto-EventManager" style="stroke:#181818;stroke-width:1;"/><polygon fill="none" points="343.54,318.37,339.54,324.37,343.54,330.37,347.54,324.37,343.54,318.37" style="stroke:#181818;stroke-width:1;"/><text fill="#000000" font-family="'Segoe UI'" font-size="13" lengthAdjust="spacing" textLength="22.9785" x="320.54" y="344.0069">usa</text><text fill="#000000" font-family="'Segoe UI'" font-size="13" lengthAdjust="spacing" textLength="8.271" x="337.7202" y="367.0974">1</text></g><!--link ObserverExample to WeatherStation--><g class="link" data-entity-1="ObserverExample" data-entity-2="WeatherStation" data-source-line="62" data-uid="lnk14" id="link_ObserverExample_WeatherStation"><path codeLine="62" d="M343.54,63.73 C343.54,79.99 343.54,95.41 343.54,117.17" fill="none" id="ObserverExample-to-WeatherStation" style="stroke:#181818;stroke-width:1;stroke-dasharray:7,7;"/><polygon fill="#181818" points="343.54,123.17,347.54,114.17,343.54,118.17,339.54,114.17,343.54,123.17" style="stroke:#181818;stroke-width:1;"/></g><!--link ObserverExample to EventManager--><g class="link" data-entity-1="ObserverExample" data-entity-2="EventManager" data-source-line="63" data-uid="lnk15" id="link_ObserverExample_EventManager"><path codeLine="63" d="M242.7,45.05 C187.14,45.05 129.31,45.05 129.31,45.05 C129.31,45.05 129.31,258.68 129.31,371.49" fill="none" id="ObserverExample-to-EventManager" style="stroke:#181818;stroke-width:1;stroke-dasharray:7,7;"/><polygon fill="#181818" points="129.31,377.49,133.31,368.49,129.31,372.49,125.31,368.49,129.31,377.49" style="stroke:#181818;stroke-width:1;"/></g><!--link ObserverExample to TemperatureDisplay--><g class="link" data-entity-1="ObserverExample" data-entity-2="TemperatureDisplay" data-source-line="64" data-uid="lnk16" id="link_ObserverExample_TemperatureDisplay"><path codeLine="64" d="M242.84,26.05 C159.81,26.05 55.63,26.05 55.63,26.05 C55.63,26.05 55.63,547.5 55.63,677.3" fill="none" id="ObserverExample-to-TemperatureDisplay" style="stroke:#181818;stroke-width:1;stroke-dasharray:7,7;"/><polygon fill="#181818" points="55.63,683.3,59.63,674.3,55.63,678.3,51.63,674.3,55.63,683.3" style="stroke:#181818;stroke-width:1;"/></g><!--link ObserverExample to HumidityDisplay--><g class="link" data-entity-1="ObserverExample" data-entity-2="HumidityDisplay" data-source-line="65" data-uid="lnk17" id="link_ObserverExample_HumidityDisplay"><path codeLine="65" d="M444.18,45.05 C510.11,45.05 584.13,45.05 584.13,45.05 C584.13,45.05 584.13,538.05 584.13,538.05 C584.13,538.05 458.57,538.05 458.57,538.05 C458.57,538.05 458.57,628.32 458.57,677.58" fill="none" id="ObserverExample-to-HumidityDisplay" style="stroke:#181818;stroke-width:1;stroke-dasharray:7,7;"/><polygon fill="#181818" points="458.57,683.58,462.57,674.58,458.57,678.58,454.57,674.58,458.57,683.58" style="stroke:#181818;stroke-width:1;"/></g><!--link ObserverExample to PressureDisplay--><g class="link" data-entity-1="ObserverExample" data-entity-2="PressureDisplay" data-source-line="66" data-uid="lnk18" id="link_ObserverExample_PressureDisplay"><path codeLine="66" d="M444.2,26.05 C545.47,26.05 686.76,26.05 686.76,26.05 C686.76,26.05 686.76,547.5 686.76,677.3" fill="none" id="ObserverExample-to-PressureDisplay" style="stroke:#181818;stroke-width:1;stroke-dasharray:7,7;"/><polygon fill="#181818" points="686.76,683.3,690.76,674.3,686.76,678.3,682.76,674.3,686.76,683.3" style="stroke:#181818;stroke-width:1;"/></g><!--SRC=[fLJ1RjD04BtxAqQ-rA69WQjLLQhIGYDHg4WH1yHXOa-I1NlNxAuhGjkFGHmgSUSBycFCRkp4SLs9YeibxxxPUVFcpHp0ASs594304lNwjqm5GgJAL2Y9-I0mNuNa2omWpT6O4skrc5MM9gcIK_63u4KBaj4Sgzo-KjA-nO8WdD924NoOX2rGpkdigYHGsYvLi1GP0HMbNK51nOoq2O83c4XBUeufGQRWtSoGlYOTYEtfj9gPb9cGXfi0u12gCaDB4NymuO0lbDf10jTAPC6TUx1vmy1OoLIJLIRm5S4L9oUDjj9qAaoPu-gVdjm4drU5o8HTFJtoKfCnJynv0Eyfn_Nz-fTYhM5Ib3aL9EtcA6Y9SdGRnpsLFO1q-3-uxx1q5CQEFi5bDSk5MP9-pZ6E9qIlIPFpJwQqetTspTIK6TG5-zyBbBYecpPYAnXBafkIm3cQvGMMHrFsbrmCuKHhNBtX-wCTfUDZhr7x8NQggv3DocziOkCu7dYSQG8ZSX5NxBa6CzocJbfMQfJsZP3_5IwL5VDLN-IZhQrr_LOHL0P1xHG6DpYR9qMA6eegGxc-H-DK9cDPy5hZZuIM0wRMIrAhJ2szaZtr_BNTkII1UQxG-kDbxOpsMLcxONTss4aPFPvi2BlEa6rvCth8e2qbWnkNHXrI7LXZrgZ3imrRxASUDAMqMr1ofr9HOWxHE1TS0JKURhR8sNTqirSFxOrnnQTtKA2G4Uh5rekVFlTDxn_odJinHl6qRCQPU16N9BFD1WxsXaMDHX0-2zjBBu6myKCOTBhkuI_3_O7Z07PLw5SXht9V5KITUWPCov7WhSlcyYKpLUy-NlTpiQZq-kU8ZuEk475yt752BsJFV7s0dfNL1-kkhJvCPtNz1G00]--></g></svg>